<svg width="25" height="25" viewBox="0 0 25 25" fill="none" xmlns="http://www.w3.org/2000/svg">
<path d="M8.77383 8.20234C7.59517 7.73509 6.34521 7.4731 5.07812 7.42773V17.968H5.35156C6.7377 17.9716 8.09716 18.3492 9.28656 19.0611C10.476 19.7729 11.4512 20.7926 12.1094 22.0125V10.9188C11.3489 10.841 10.6278 10.5424 10.0351 10.0597C9.44239 9.57697 9.00393 8.93131 8.77383 8.20234ZM10.6613 18.6352L10.3652 18.3391C9.87731 17.8483 9.29687 17.4592 8.65753 17.1944C8.01819 16.9295 7.33265 16.7942 6.64062 16.7961V16.0148C7.43528 16.0126 8.22248 16.1681 8.95664 16.4722C9.69079 16.7764 10.3573 17.2232 10.9176 17.7867L11.2137 18.082L10.6613 18.6352ZM10.6613 16.2914L10.3652 15.9953C9.87731 15.5046 9.29687 15.1155 8.65753 14.8506C8.01819 14.5858 7.33265 14.4504 6.64062 14.4523V13.6711C7.43528 13.6689 8.22248 13.8243 8.95664 14.1285C9.69079 14.4326 10.3573 14.8794 10.9176 15.443L11.2137 15.7383L10.6613 16.2914ZM11.2137 13.3945L10.6613 13.9477L10.3652 13.6516C9.87731 13.1608 9.29687 12.7717 8.65753 12.5069C8.01819 12.242 7.33265 12.1067 6.64062 12.1086V11.3273C7.43528 11.3251 8.22248 11.4806 8.95664 11.7847C9.69079 12.0889 10.3573 12.5357 10.9176 13.0992L11.2137 13.3945Z" fill="black"/>
<path d="M15.4328 8.12148C14.8984 8.43074 14.292 8.59381 13.6746 8.59429C13.0572 8.59478 12.4506 8.43266 11.9157 8.12425C11.3809 7.81584 10.9367 7.37201 10.6278 6.83742C10.3189 6.30282 10.1563 5.69631 10.1562 5.07891V4.96484C9.85324 5.3089 9.62964 5.71542 9.50132 6.15556C9.37299 6.59571 9.34309 7.05869 9.41372 7.51169C9.48436 7.96468 9.6538 8.39659 9.91003 8.77677C10.1663 9.15695 10.503 9.47609 10.8964 9.71156C11.2898 9.94704 11.7301 10.0931 12.1863 10.1393C12.6424 10.1855 13.1031 10.1308 13.5357 9.9791C13.9684 9.82735 14.3623 9.58227 14.6896 9.26124C15.0169 8.94021 15.2696 8.55109 15.4297 8.12148H15.4328ZM5.35156 18.7508H4.6875C4.5839 18.7508 4.48454 18.7096 4.41129 18.6364C4.33803 18.5631 4.29688 18.4638 4.29688 18.3602V8.98516H3.125V19.9227H4.99727C7.38581 19.9242 9.6872 20.8201 11.448 22.434C10.8615 21.3248 9.98431 20.3961 8.91038 19.7473C7.83646 19.0985 6.60626 18.754 5.35156 18.7508Z" fill="black"/>
<path d="M19.6484 17.968H19.9219V7.42773C18.6548 7.47314 17.4048 7.73513 16.2262 8.20234C15.9998 8.93338 15.5624 9.58118 14.9689 10.0643C14.3755 10.5474 13.6524 10.8443 12.8906 10.9176V22.0113C13.549 20.7916 14.5243 19.7722 15.7137 19.0606C16.903 18.349 18.2624 17.9715 19.6484 17.968ZM14.0824 13.0988C14.6428 12.5354 15.3093 12.0887 16.0434 11.7847C16.7776 11.4806 17.5648 11.3251 18.3594 11.3273V12.1086C17.6673 12.1067 16.9818 12.242 16.3425 12.5069C15.7031 12.7717 15.1227 13.1608 14.6348 13.6516L14.3387 13.9477L13.7863 13.3945L14.0824 13.0988ZM14.0824 15.4426C14.6428 14.8792 15.3093 14.4325 16.0434 14.1284C16.7776 13.8243 17.5648 13.6689 18.3594 13.6711V14.4523C17.6673 14.4504 16.9818 14.5858 16.3425 14.8506C15.7031 15.1155 15.1227 15.5046 14.6348 15.9953L14.3387 16.2914L13.7863 15.7383L14.0824 15.4426ZM14.0824 17.7863C14.6428 17.2229 15.3093 16.7762 16.0434 16.4722C16.7776 16.1681 17.5648 16.0126 18.3594 16.0148V16.7961C17.6673 16.7942 16.9818 16.9295 16.3425 17.1944C15.7031 17.4592 15.1227 17.8483 14.6348 18.3391L14.3387 18.6352L13.7863 18.082L14.0824 17.7863Z" fill="black"/>
<path d="M20.7031 8.98438V18.3594C20.7031 18.463 20.662 18.5623 20.5887 18.6356C20.5155 18.7088 20.4161 18.75 20.3125 18.75H19.6484C18.3942 18.7537 17.1646 19.0984 16.0912 19.7472C15.0178 20.396 14.141 21.3244 13.5547 22.4332C15.3148 20.82 17.6151 19.9241 20.0027 19.9219H21.875V8.98438H20.7031ZM14.4531 7.8125L15.2344 5.85938L16.4062 5.07812L15.2344 4.6875L14.4527 2.73438L13.6719 4.6875L12.5 5.07812L13.6719 5.85938L14.4531 7.8125Z" fill="black"/>
</svg>
