<svg width="30" height="30" viewBox="0 0 30 30" fill="none" xmlns="http://www.w3.org/2000/svg">
<g clip-path="url(#clip0_223_284)">
<path d="M25.7531 10.7531C25.6593 10.6593 25.6066 10.5321 25.6066 10.3995V4.89336C25.6066 4.61722 25.3828 4.39336 25.1066 4.39336H19.6005C19.4679 4.39336 19.3407 4.34068 19.2469 4.24691L15.3536 0.353553C15.1583 0.158291 14.8417 0.158291 14.6464 0.353553L10.7531 4.24691C10.6593 4.34068 10.5321 4.39336 10.3995 4.39336H4.89336C4.61722 4.39336 4.39336 4.61722 4.39336 4.89336V10.3995C4.39336 10.5321 4.34068 10.6593 4.24691 10.7531L0.353553 14.6464C0.158291 14.8417 0.158291 15.1583 0.353553 15.3536L4.24691 19.2469C4.34068 19.3407 4.39336 19.4679 4.39336 19.6005V25.1066C4.39336 25.3828 4.61722 25.6066 4.89336 25.6066H10.3995C10.5321 25.6066 10.6593 25.6593 10.7531 25.7531L14.6464 29.6464C14.8417 29.8417 15.1583 29.8417 15.3536 29.6464L19.2469 25.7531C19.3407 25.6593 19.4679 25.6066 19.6005 25.6066H25.1066C25.3828 25.6066 25.6066 25.3828 25.6066 25.1066V19.6005C25.6066 19.4679 25.6593 19.3407 25.7531 19.2469L29.6464 15.3536C29.8417 15.1583 29.8417 14.8417 29.6464 14.6464L25.7531 10.7531ZM23.9947 18.5186C23.9009 18.6124 23.8482 18.7395 23.8482 18.8721V23.3482C23.8482 23.6244 23.6244 23.8482 23.3482 23.8482H18.8721C18.7395 23.8482 18.6124 23.9009 18.5186 23.9947L15.3536 27.1597C15.1583 27.355 14.8417 27.355 14.6464 27.1597L11.4814 23.9947C11.3876 23.9009 11.2605 23.8482 11.1279 23.8482H6.65176C6.37562 23.8482 6.15176 23.6244 6.15176 23.3482V18.8721C6.15176 18.7395 6.09908 18.6124 6.00531 18.5186L2.84027 15.3536C2.64501 15.1583 2.64501 14.8417 2.84027 14.6464L6.00531 11.4814C6.09908 11.3876 6.15176 11.2605 6.15176 11.1279V6.65176C6.15176 6.37562 6.37562 6.15176 6.65176 6.15176H11.1279C11.2605 6.15176 11.3876 6.09908 11.4814 6.00531L14.6464 2.84027C14.8417 2.64501 15.1583 2.64501 15.3536 2.84027L18.5186 6.00531C18.6124 6.09908 18.7395 6.15176 18.8721 6.15176H23.3482C23.6244 6.15176 23.8482 6.37562 23.8482 6.65176V11.1279C23.8482 11.2605 23.9009 11.3876 23.9947 11.4814L27.1597 14.6464C27.355 14.8417 27.355 15.1583 27.1597 15.3536L23.9947 18.5186Z" fill="black"/>
</g>
<defs>
<clipPath id="clip0_223_284">
<rect width="30" height="30" rx="1" fill="white"/>
</clipPath>
</defs>
</svg>
